<?xml version="1.0" encoding="UTF-8" standalone="no"?>
<svg
   xmlns:dc="http://purl.org/dc/elements/1.1/"
   xmlns:cc="http://creativecommons.org/ns#"
   xmlns:rdf="http://www.w3.org/1999/02/22-rdf-syntax-ns#"
   xmlns:svg="http://www.w3.org/2000/svg"
   xmlns="http://www.w3.org/2000/svg"
   xmlns:sodipodi="http://sodipodi.sourceforge.net/DTD/sodipodi-0.dtd"
   xmlns:inkscape="http://www.inkscape.org/namespaces/inkscape"
   sodipodi:docname="drawing3.svg"
   id="svg39"
   version="1.1"
   viewBox="0 0 186.53065 30.426991"
   height="30.426991mm"
   width="186.53065mm"
   inkscape:version="1.0.2-2 (e86c870879, 2021-01-15)">
  <defs
     id="defs34">
    <clipPath
       id="clipPath6300">
      <rect
         style="fill:none;fill-opacity:0;stroke-width:0.264583"
         width="75.40625"
         height="27.78125"
         x="33.072918"
         y="60.854164"
         id="rect974" />
    </clipPath>
    <clipPath
       id="clipPath6397">
      <rect
         style="fill:none;fill-opacity:0;stroke-width:0.264583"
         width="10.583333"
         height="6.614583"
         x="48.947918"
         y="72.760414"
         id="rect994" />
    </clipPath>
    <clipPath
       id="clipPath2567">
      <rect
         style="fill:none;fill-opacity:0;stroke-width:0.264583"
         width="10.583333"
         height="6.614583"
         x="48.947918"
         y="72.760414"
         id="rect1013" />
    </clipPath>
    <clipPath
       id="clipPath5054">
      <rect
         style="fill:none;fill-opacity:0;stroke-width:0.264583"
         width="10.583333"
         height="6.614583"
         x="48.947918"
         y="72.760414"
         id="rect1035" />
    </clipPath>
    <clipPath
       id="clipPath9484">
      <rect
         style="opacity:0.363636;fill:#0000ff;fill-opacity:0.553279;stroke:#000013;stroke-width:0.265;stroke-miterlimit:4;stroke-dasharray:none;stroke-opacity:0.5"
         width="10.583333"
         height="6.614583"
         x="48.947918"
         y="72.760414"
         id="rect1060" />
    </clipPath>
    <clipPath
       id="clipPath6468">
      <rect
         style="opacity:0.363636;fill:#0000ff;fill-opacity:0.553279;stroke:#000013;stroke-width:0.265;stroke-miterlimit:4;stroke-dasharray:none;stroke-opacity:0.5"
         width="10.583333"
         height="6.614583"
         x="48.947918"
         y="72.760414"
         id="rect1088" />
    </clipPath>
    <clipPath
       id="clipPath1554">
      <rect
         style="opacity:0;fill:none;fill-opacity:0.553279;stroke:#000013;stroke-width:0.1;stroke-linecap:round;stroke-linejoin:round;stroke-miterlimit:4;stroke-dasharray:none;stroke-opacity:1"
         width="12.964583"
         height="6.0854168"
         x="50.270832"
         y="73.554169"
         id="rect1157" />
    </clipPath>
    <clipPath
       id="clipPath8965">
      <rect
         style="opacity:1;fill:none;fill-opacity:0.553279;stroke:none;stroke-width:0.1;stroke-linecap:round;stroke-linejoin:bevel;stroke-miterlimit:4;stroke-dasharray:none;stroke-dashoffset:0;stroke-opacity:1;paint-order:stroke markers fill"
         width="10.318749"
         height="3.175"
         x="46.831249"
         y="74.083336"
         id="rect1227" />
    </clipPath>
  </defs>
  <sodipodi:namedview
     id="base"
     pagecolor="#ffffff"
     bordercolor="#666666"
     borderopacity="1.0"
     inkscape:pageopacity="0.0"
     inkscape:pageshadow="2"
     inkscape:zoom="1.4"
     inkscape:cx="306.63335"
     inkscape:cy="164.59707"
     inkscape:document-units="mm"
     inkscape:document-rotation="0"
     showgrid="true"
     inkscape:window-width="1920"
     inkscape:window-height="986"
     inkscape:window-x="-11"
     inkscape:window-y="-11"
     inkscape:window-maximized="1"
     inkscape:current-layer="svg39">
    <inkscape:grid
       type="xygrid"
       id="grid43"
       originx="-3.9693838"
       originy="-43.656312" />
  </sodipodi:namedview>
  <metadata
     id="metadata37">
    <rdf:RDF>
      <cc:Work
         rdf:about="">
        <dc:format>image/svg+xml</dc:format>
        <dc:type
           rdf:resource="http://purl.org/dc/dcmitype/StillImage" />
        <dc:title></dc:title>
      </cc:Work>
    </rdf:RDF>
  </metadata>
  <path
     style="opacity:1;fill:none;fill-opacity:0.553279;stroke:#000000;stroke-width:0.1;stroke-linecap:round;stroke-linejoin:bevel;stroke-miterlimit:4;stroke-dasharray:none;stroke-dashoffset:0;stroke-opacity:0.889344;paint-order:stroke markers fill"
     d="m 46.8312,75.6708 c 0.0348,-0.1343 0.0695,-0.2686 0.1043,-0.3987 0.0347,-0.13 0.0695,-0.2557 0.1042,-0.3731 0.0348,-0.1174 0.0695,-0.2264 0.1042,-0.3237 0.0348,-0.0972 0.0695,-0.1826 0.1043,-0.2534 0.0347,-0.0708 0.0695,-0.1271 0.1042,-0.167 0.0347,-0.0399 0.0695,-0.0634 0.1042,-0.0698 0.0348,-0.0064 0.0695,0.0044 0.1043,0.0319 0.0347,0.0275 0.0694,0.0718 0.1042,0.1314 0.0347,0.0597 0.0695,0.1347 0.1042,0.2227 0.0348,0.0879 0.0695,0.1889 0.1042,0.2995 0.0348,0.1107 0.0695,0.231 0.1043,0.3573 0.0347,0.1262 0.0695,0.2583 0.1042,0.392 0.0347,0.1338 0.0695,0.2691 0.1042,0.4018 0.0348,0.1326 0.0695,0.2625 0.1043,0.3856 0.0347,0.1231 0.0695,0.2393 0.1042,0.3449 0.0347,0.1056 0.0695,0.2005 0.1042,0.2819 0.0348,0.0814 0.0695,0.1491 0.1043,0.201 0.0347,0.0519 0.0694,0.0879 0.1042,0.1071 0.0347,0.0191 0.0695,0.0212 0.1042,0.0064 0.0348,-0.0149 0.0695,-0.0469 0.1042,-0.0948 0.0348,-0.0479 0.0695,-0.1119 0.1043,-0.1898 0.0347,-0.0779 0.0695,-0.1698 0.1042,-0.2727 0.0347,-0.1029 0.0695,-0.2169 0.1042,-0.3382 0.0348,-0.1213 0.0695,-0.2499 0.1043,-0.3818 0.0347,-0.1319 0.0695,-0.2671 0.1042,-0.4011 0.0347,-0.1341 0.0695,-0.2671 0.1042,-0.3947 0.0348,-0.1277 0.0695,-0.2499 0.1043,-0.3629 0.0347,-0.1131 0.0694,-0.2168 0.1042,-0.3079 0.0347,-0.0912 0.0695,-0.1697 0.1042,-0.2332 0.0348,-0.0634 0.0695,-0.1117 0.1042,-0.1434 0.0348,-0.0317 0.0695,-0.0467 0.1043,-0.0446 0.0347,0.0022 0.0695,0.0215 0.1042,0.0572 0.0347,0.0358 0.0695,0.0882 0.1042,0.1553 0.0348,0.0672 0.0695,0.1492 0.1043,0.2434 0.0347,0.0943 0.0694,0.2007 0.1042,0.316 0.0347,0.1152 0.0695,0.2393 0.1042,0.3682 0.0348,0.1289 0.0695,0.2626 0.1043,0.3969 0.0347,0.1342 0.0694,0.269 0.1042,0.4001 0.0347,0.131 0.0695,0.2583 0.1042,0.3777 0.0348,0.1194 0.0695,0.2309 0.1042,0.331 0.0348,0.1002 0.0695,0.1888 0.1043,0.2632 0.0347,0.0745 0.0695,0.1346 0.1042,0.1785 0.0347,0.044 0.0695,0.0717 0.1042,0.0823 0.0348,0.0107 0.0695,0.0042 0.1043,-0.0191 0.0347,-0.0233 0.0694,-0.0635 0.1042,-0.1193 0.0347,-0.0558 0.0695,-0.1272 0.1042,-0.2119 0.0348,-0.0847 0.0695,-0.1828 0.1042,-0.2909 0.0348,-0.1082 0.0695,-0.2265 0.1043,-0.3512 0.0347,-0.1248 0.0695,-0.2558 0.1042,-0.3891 0.0348,-0.1333 0.0695,-0.2687 0.1042,-0.4019 0.0348,-0.1333 0.0695,-0.2644 0.1043,-0.3891 0.0347,-0.1247 0.0695,-0.243 0.1042,-0.3512 0.0347,-0.1082 0.0695,-0.2062 0.1042,-0.2909 0.0348,-0.0847 0.0695,-0.1561 0.1043,-0.2119 0.0347,-0.0558 0.0694,-0.096 0.1042,-0.1193 0.0347,-0.0234 0.0695,-0.0298 0.1042,-0.0192 0.0348,0.0107 0.0695,0.0384 0.1042,0.0823 0.0348,0.044 0.0695,0.1041 0.1043,0.1785 0.0347,0.0744 0.0695,0.1631 0.1042,0.2632 0.0347,0.1001 0.0695,0.2117 0.1042,0.3311 0.0348,0.1194 0.0695,0.2467 0.1043,0.3777 0.0347,0.131 0.0695,0.2658 0.1042,0.4001 0.0347,0.1343 0.0695,0.268 0.1042,0.3969 0.0348,0.1289 0.0695,0.2529 0.1043,0.3682 0.0347,0.1153 0.0694,0.2217 0.1042,0.3159 0.0347,0.0943 0.0695,0.1763 0.1042,0.2435 0.0348,0.0671 0.0695,0.1194 0.1042,0.1552 0.0348,0.0358 0.0695,0.0551 0.1043,0.0572 0.0347,0.0022 0.0695,-0.0129 0.1042,-0.0445 0.0347,-0.0317 0.0695,-0.08 0.1042,-0.1435 0.0348,-0.0634 0.0695,-0.142 0.1043,-0.2331 0.0347,-0.0911 0.0695,-0.1949 0.1042,-0.3079 0.0347,-0.113 0.0695,-0.2353 0.1042,-0.3629 0.0348,-0.1276 0.0695,-0.2606 0.1043,-0.3947 0.0347,-0.134 0.0694,-0.2692 0.1042,-0.4011 0.0347,-0.1319 0.0695,-0.2606 0.1042,-0.3819 0.0348,-0.1213 0.0695,-0.2352 0.1042,-0.3381 0.0348,-0.1029 0.0695,-0.1948 0.1043,-0.2727 0.0347,-0.0779 0.0695,-0.1419 0.1042,-0.1898 0.0347,-0.048 0.0695,-0.0799 0.1042,-0.0948 0.0348,-0.0149 0.0695,-0.0127 0.1043,0.0064 0.0347,0.0191 0.0694,0.0552 0.1042,0.1071 0.0347,0.0519 0.0695,0.1196 0.1042,0.201 0.0348,0.0813 0.0695,0.1763 0.1043,0.2819 0.0347,0.1056 0.0694,0.2218 0.1042,0.3449 0.0347,0.123 0.0695,0.253 0.1042,0.3856 0.0348,0.1327 0.0695,0.268 0.1042,0.4017 0.0348,0.1338 0.0695,0.2659 0.1043,0.3921 0.0347,0.1262 0.0695,0.2466 0.1042,0.3572 0.0347,0.1107 0.0695,0.2116 0.1042,0.2996 0.0348,0.088 0.0695,0.163 0.1043,0.2226 0.0347,0.0597 0.0694,0.104 0.1042,0.1315 0.0347,0.0275 0.0695,0.0382 0.1042,0.0318 0.0348,-0.0063 0.0695,-0.0299 0.1042,-0.0698 0.0348,-0.0398 0.0695,-0.0961 0.1043,-0.1669 0.0347,-0.0708 0.0695,-0.1563 0.1042,-0.2535 0.0348,-0.0972 0.0695,-0.2062 0.1042,-0.3236 0.0348,-0.1174 0.0695,-0.2431 0.1043,-0.3732 0.0347,-0.13 0.0695,-0.2643 0.1042,-0.3987"
     title="sin(x)"
     clip-path="url(#clipPath8965)"
     id="path1236"
     transform="matrix(44.70681,-9.1025414,0,9.5833043,-2089.7076,-258.54441)" />
</svg>
